<svg t="1721570050317" class="icon" viewBox="0 0 1024 1024" version="1.1" xmlns="http://www.w3.org/2000/svg" p-id="9753" width="30" height="30"><path d="M832 192a128 128 0 0 1 128 128v384a128 128 0 0 1-128 128H192a128 128 0 0 1-128-128V320a128 128 0 0 1 128-128h640z m0 64H192a64 64 0 0 0-64 64v384a64 64 0 0 0 64 64h640a64 64 0 0 0 64-64V320a64 64 0 0 0-64-64z m-108.736 158.784l45.248 45.312-150.592 150.592L467.2 460.16l45.248-45.312 105.408 105.408L723.2 414.784z" p-id="9754" fill="#cdcdcd"></path></svg>